Coordinates
version=1
nRows=6
nColumns=46
inDegrees=yes

Units are S.I. units (second, meters, Newtons, ...)
Angles are in degrees.

endheader
time	pelvis_tilt	pelvis_list	pelvis_rotation	pelvis_tx	pelvis_ty	pelvis_tz	bb_angle	bb_tx	bb_ty	bb_tz	hip_flexion_r	hip_adduction_r	hip_rotation_r	knee_angle_r	knee_angle_r_beta	ankle_angle_r	subtalar_angle_r	mtp_angle_r	crank_angle_r	hip_flexion_l	hip_adduction_l	hip_rotation_l	knee_angle_l	knee_angle_l_beta	ankle_angle_l	subtalar_angle_l	mtp_angle_l	crank_angle_l	lumbar_extension	lumbar_bending	lumbar_rotation	arm_flex_r	arm_add_r	arm_rot_r	elbow_flex_r	pro_sup_r	wrist_flex_r	wrist_dev_r	arm_flex_l	arm_add_l	arm_rot_l	elbow_flex_l	pro_sup_l	wrist_flex_l	wrist_dev_l
      2.50000000	    -50.26439499	    -45.65640362	    -18.30773460	      0.08763502	      0.99877986	     -0.25201460	      0.00000000	      0.50000000	      0.00000000	      0.25000000	    119.97090648	     -7.95969437	    -39.91768655	    115.70698320	      2.01946782	     13.73083459	     -5.40281283	      0.00000000	      0.00000000	    119.86811642	    -27.39833123	     39.96044022	     68.68930243	      1.19885449	    -12.40295027	     19.86466701	      0.00000000	      0.00000000	    -22.09264772	     44.71128786	     21.17047897	     84.55538785	    -11.01287831	     72.51407073	     31.78279618	     51.70041506	      0.00000000	      0.00000000	     82.37093471	    -29.36610080	     75.02543060	     41.48898741	     57.41169308	      0.00000000	      0.00000000
      2.50500000	    -49.97036156	    -45.29193991	    -18.32801589	      0.08715600	      0.99916123	     -0.25187440	      0.00000000	      0.50000000	      0.00000000	      0.25000000	    119.97140686	     -7.60618469	    -39.90834360	    114.89283634	      2.00525828	     14.38042953	     -6.04318198	      0.00000000	      0.00000000	    119.86029062	    -27.73440525	     39.96250539	     69.61674023	      1.21504133	    -12.60698316	     19.34097465	      0.00000000	      0.00000000	    -22.37990065	     44.21838269	     21.29506074	     84.52469955	    -10.94968196	     72.31212662	     31.89015509	     51.67941010	      0.00000000	      0.00000000	     82.35450405	    -29.43566177	     74.89015676	     41.43800522	     57.38866450	      0.00000000	      0.00000000
      2.51000000	    -49.73502005	    -44.80243677	    -18.47667122	      0.08668521	      0.99963029	     -0.25160808	      0.00000000	      0.50000000	      0.00000000	      0.25000000	    119.97180368	     -7.03236051	    -39.89402733	    113.93573255	      1.98855367	     14.95535088	     -7.01014630	      0.00000000	      0.00000000	    119.85333868	    -28.11526900	     39.96441504	     70.56171004	      1.23153417	    -12.84181514	     18.65333322	      0.00000000	      0.00000000	    -22.68452852	     43.56741571	     21.69457969	     83.66406656	    -11.07078606	     68.55645580	     33.22566371	     51.17164105	      0.00000000	      0.00000000	     81.64454724	    -29.19574386	     72.58356590	     41.66249878	     57.11219424	      0.00000000	      0.00000000
      2.51500000	    -49.56532193	    -44.22717369	    -18.66948669	      0.08616296	      0.99980551	     -0.25134267	      0.00000000	      0.50000000	      0.00000000	      0.25000000	    119.97188602	     -6.39331918	    -39.86725740	    112.92057004	      1.97083574	     15.95110944	     -7.82037510	      0.00000000	      0.00000000	    119.85234745	    -28.40534065	     39.96621697	     71.58767611	      1.24944065	    -13.02120921	     17.89296802	      0.00000000	      0.00000000	    -22.75096593	     42.90199444	     21.74850302	     83.54250226	    -10.96979112	     68.36263135	     33.32114515	     51.14150948	      0.00000000	      0.00000000	     81.52665121	    -29.28602806	     72.39048931	     41.59016609	     57.07602297	      0.00000000	      0.00000000
      2.52000000	    -49.45270272	    -43.59524344	    -18.85590585	      0.08559456	      0.99970907	     -0.25106051	      0.00000000	      0.50000000	      0.00000000	      0.25000000	    119.97175676	     -5.67771587	    -39.80933915	    111.80388817	      1.95134597	     17.03340209	     -8.70300672	      0.00000000	      0.00000000	    119.85641359	    -28.57220446	     39.96792260	     72.68594598	      1.26860908	    -13.14788853	     17.18883707	      0.00000000	      0.00000000	    -22.61421124	     42.22221825	     21.65389549	     83.38873210	    -10.92862192	     68.24464541	     33.41045113	     51.13196179	      0.00000000	      0.00000000	     81.38422533	    -29.35439144	     72.26136499	     41.56030272	     57.05356763	      0.00000000	      0.00000000
      2.52500000	    -49.34406890	    -42.84384015	    -19.12041542	      0.08514808	      0.99949188	     -0.25044835	      0.00000000	      0.50000000	      0.00000000	      0.25000000	    119.97155510	     -4.71900179	    -39.67461915	    110.54334018	      1.92934525	     18.16009194	     -9.71695341	      0.00000000	      0.00000000	    119.85982269	    -28.76332324	     39.96927913	     73.89309896	      1.28967787	    -13.27446597	     16.14384425	      0.00000000	      0.00000000	    -22.46167084	     41.40449979	     21.59891133	     83.11256129	    -10.82588629	     68.02940886	     33.58407281	     51.11868731	      0.00000000	      0.00000000	     81.17393881	    -29.49216057	     72.01298109	     41.52704158	     57.01217892	      0.00000000	      0.00000000
